<?xml version="1.0" encoding="UTF-8" standalone="no"?>
<!-- Created with Inkscape (http://www.inkscape.org/) -->

<svg
   version="1.1"
   id="svg1"
   width="200"
   height="150"
   viewBox="0 0 200 150"
   sodipodi:docname="logo COLOR cx бесплатным шрифтом expended.pdf"
   xmlns:inkscape="http://www.inkscape.org/namespaces/inkscape"
   xmlns:sodipodi="http://sodipodi.sourceforge.net/DTD/sodipodi-0.dtd"
   xmlns="http://www.w3.org/2000/svg"
   xmlns:svg="http://www.w3.org/2000/svg">
  <defs
     id="defs1">
    <clipPath
       clipPathUnits="userSpaceOnUse"
       id="clipPath1">
      <path
         d="M 0,0 H 612 V 564 H 0 Z"
         id="path1" />
    </clipPath>
    <clipPath
       clipPathUnits="userSpaceOnUse"
       id="clipPath3">
      <path
         d="M 0,0 H 612 V 564 H 0 Z"
         id="path3" />
    </clipPath>
    <clipPath
       clipPathUnits="userSpaceOnUse"
       id="clipPath5">
      <path
         d="M 0,0 H 612 V 564 H 0 Z"
         id="path5" />
    </clipPath>
    <clipPath
       clipPathUnits="userSpaceOnUse"
       id="clipPath7">
      <path
         d="M 0,0 H 612 V 564 H 0 Z"
         id="path7" />
    </clipPath>
    <clipPath
       clipPathUnits="userSpaceOnUse"
       id="clipPath9">
      <path
         d="M 0,0 H 612 V 564 H 0 Z"
         id="path9" />
    </clipPath>
    <clipPath
       clipPathUnits="userSpaceOnUse"
       id="clipPath11">
      <path
         d="M 0,0 H 612 V 564 H 0 Z"
         id="path11" />
    </clipPath>
    <clipPath
       clipPathUnits="userSpaceOnUse"
       id="clipPath13">
      <path
         d="M 0,0 H 612 V 564 H 0 Z"
         id="path13" />
    </clipPath>
    <clipPath
       clipPathUnits="userSpaceOnUse"
       id="clipPath15">
      <path
         d="M 0,0 H 612 V 564 H 0 Z"
         id="path15" />
    </clipPath>
    <clipPath
       clipPathUnits="userSpaceOnUse"
       id="clipPath17">
      <path
         d="M 0,0 H 612 V 564 H 0 Z"
         id="path17" />
    </clipPath>
    <clipPath
       clipPathUnits="userSpaceOnUse"
       id="clipPath19">
      <path
         d="M 0,0 H 612 V 564 H 0 Z"
         id="path19" />
    </clipPath>
    <clipPath
       clipPathUnits="userSpaceOnUse"
       id="clipPath21">
      <path
         d="M 0,0 H 612 V 564 H 0 Z"
         id="path21" />
    </clipPath>
    <clipPath
       clipPathUnits="userSpaceOnUse"
       id="clipPath23">
      <path
         d="M 0,0 H 612 V 564 H 0 Z"
         id="path23" />
    </clipPath>
    <clipPath
       clipPathUnits="userSpaceOnUse"
       id="clipPath25">
      <path
         d="M 0,0 H 612 V 564 H 0 Z"
         id="path25" />
    </clipPath>
    <clipPath
       clipPathUnits="userSpaceOnUse"
       id="clipPath27">
      <path
         d="M 0,0 H 612 V 564 H 0 Z"
         id="path27" />
    </clipPath>
    <clipPath
       clipPathUnits="userSpaceOnUse"
       id="clipPath29">
      <path
         d="M 0,0 H 612 V 564 H 0 Z"
         id="path29" />
    </clipPath>
    <clipPath
       clipPathUnits="userSpaceOnUse"
       id="clipPath31">
      <path
         d="M 0,0 H 612 V 564 H 0 Z"
         id="path31" />
    </clipPath>
    <clipPath
       clipPathUnits="userSpaceOnUse"
       id="clipPath33">
      <path
         d="M 0,0 H 612 V 564 H 0 Z"
         id="path33" />
    </clipPath>
    <clipPath
       clipPathUnits="userSpaceOnUse"
       id="clipPath35">
      <path
         d="M 0,0 H 612 V 564 H 0 Z"
         id="path35" />
    </clipPath>
    <clipPath
       clipPathUnits="userSpaceOnUse"
       id="clipPath37">
      <path
         d="M 0,0 H 612 V 564 H 0 Z"
         id="path37" />
    </clipPath>
    <clipPath
       clipPathUnits="userSpaceOnUse"
       id="clipPath39">
      <path
         d="M 0,0 H 612 V 564 H 0 Z"
         id="path39" />
    </clipPath>
    <clipPath
       clipPathUnits="userSpaceOnUse"
       id="clipPath41">
      <path
         d="M 0,0 H 612 V 564 H 0 Z"
         id="path41" />
    </clipPath>
    <clipPath
       clipPathUnits="userSpaceOnUse"
       id="clipPath43">
      <path
         d="M 0,0 H 612 V 564 H 0 Z"
         id="path43" />
    </clipPath>
    <clipPath
       clipPathUnits="userSpaceOnUse"
       id="clipPath45">
      <path
         d="M 0,0 H 612 V 564 H 0 Z"
         id="path45" />
    </clipPath>
    <clipPath
       clipPathUnits="userSpaceOnUse"
       id="clipPath47">
      <path
         d="M 0,0 H 612 V 564 H 0 Z"
         id="path47" />
    </clipPath>
    <clipPath
       clipPathUnits="userSpaceOnUse"
       id="clipPath49">
      <path
         d="M 0,0 H 612 V 564 H 0 Z"
         id="path49" />
    </clipPath>
  </defs>
  <sodipodi:namedview
     id="namedview1"
     pagecolor="#505050"
     bordercolor="#eeeeee"
     borderopacity="1"
     inkscape:showpageshadow="0"
     inkscape:pageopacity="0"
     inkscape:pagecheckerboard="0"
     inkscape:deskcolor="#505050">
    <inkscape:page
       x="0"
       y="0"
       id="page1"
       width="200"
       height="150"
       margin="0"
       bleed="0" />
  </sodipodi:namedview>
  <g
     id="g1"
     inkscape:groupmode="layer"
     inkscape:label="">
    <g
       id="g2"
       transform="matrix(0.26094511,0,0,0.26094511,-3.3670218,-24.229633)">
      <path
         d="m 224.387,393.578 c 61.07,11.027 57.023,9.984 70.836,11.68 0.121,-1.043 0.285,-2.078 0.496,-3.106 -21.594,-15.59 -49.805,-20.039 -76.672,-21.101 -29.09,-1.153 -58.754,0.832 -86.828,-6.883 -6.43,-1.77 -12.809,-4.207 -18.887,-7.25 -13.91,5.492 -28.766,10.227 -51.234,10.227 0,8.378 -10.145,20.304 -10.145,28.613 57.172,0 116.172,-22.336 172.434,-12.18"
         style="fill:#162856;fill-opacity:1;fill-rule:nonzero;stroke:none"
         transform="scale(1.3333333)"
         clip-path="url(#clipPath1)"
         id="path2" />
    </g>
    <g
       id="g4"
       transform="matrix(0.26094511,0,0,0.26094511,-3.3670218,-24.229633)">
      <path
         d="m 134.824,335.801 c 26.391,12.301 55.973,15.301 84.461,21.301 28.488,5.996 57.883,16.152 76.551,38.515 0.898,-20.504 -13.629,-38.519 -29.742,-51.207 -24.364,-19.176 -54.305,-31.16 -85.156,-34.074 -17.321,-1.637 -35,-0.508 -51.934,-4.524 -16.93,-4.015 -33.777,-14.722 -38.59,-31.46 l -5.602,-4.555 c 0.297,29.141 23.622,53.703 50.012,66.004"
         style="fill:#0bb1f0;fill-opacity:1;fill-rule:nonzero;stroke:none"
         transform="scale(1.3333333)"
         clip-path="url(#clipPath3)"
         id="path4" />
    </g>
    <g
       id="g6"
       transform="matrix(0.26094511,0,0,0.26094511,-3.3670218,-24.229633)">
      <path
         d="m 127.148,369.969 c 28.075,7.719 57.739,5.73 86.825,6.883 29.043,1.148 59.668,6.238 81.793,25.089 0.015,-0.082 0.035,-0.168 0.054,-0.253 -0.191,-1.434 -0.457,-2.844 -0.789,-4.231 -18.699,-21.711 -47.66,-31.676 -75.746,-37.59 -26.91,-5.664 -54.789,-8.656 -80.039,-19.34 -7.601,0.836 -15.207,1.344 -22.84,0.848 -17.363,-1.129 -35.758,-8.871 -43.297,-24.57 l -6.285,-3.555 c 5.156,28.68 32.25,49 60.324,56.719"
         style="fill:#c20b8b;fill-opacity:1;fill-rule:nonzero;stroke:none"
         transform="scale(1.3333333)"
         clip-path="url(#clipPath5)"
         id="path6" />
    </g>
    <g
       id="g8"
       transform="matrix(0.26094511,0,0,0.26094511,-3.3670218,-24.229633)">
      <path
         d="m 462.848,367.055 c -27.75,8.812 -57.469,7.988 -86.489,10.277 -26.808,2.113 -54.824,7.668 -75.793,24.09 0.25,1.016 0.454,2.047 0.618,3.082 13.734,-2.234 9.734,-1.035 70.324,-14.442 55.824,-12.351 115.652,7.657 172.777,5.418 -0.324,-8.3 -10.926,-19.816 -11.254,-28.191 -22.449,0.879 -37.48,-3.273 -51.593,-8.211 -5.954,3.274 -12.231,5.961 -18.59,7.977"
         style="fill:#162856;fill-opacity:1;fill-rule:nonzero;stroke:none"
         transform="scale(1.3333333)"
         clip-path="url(#clipPath7)"
         id="path8" />
    </g>
    <g
       id="g10"
       transform="matrix(0.26094511,0,0,0.26094511,-3.3670218,-24.229633)">
      <path
         d="m 300.195,394.895 c 17.778,-23.075 46.754,-34.379 74.989,-41.485 28.234,-7.105 57.671,-11.262 83.562,-24.586 25.891,-13.328 48.238,-38.785 47.399,-67.914 l -5.422,4.77 c -4.157,16.914 -20.571,28.277 -37.332,32.953 -16.762,4.672 -34.473,4.234 -51.719,6.547 -30.715,4.125 -60.164,17.269 -83.758,37.382 -15.605,13.309 -29.418,31.883 -27.719,52.333"
         style="fill:#0bb1f0;fill-opacity:1;fill-rule:nonzero;stroke:none"
         transform="scale(1.3333333)"
         clip-path="url(#clipPath9)"
         id="path10" />
    </g>
    <g
       id="g12"
       transform="matrix(0.26094511,0,0,0.26094511,-3.3670218,-24.229633)">
      <path
         d="m 454.516,333.719 c -24.817,11.664 -52.559,15.746 -79.227,22.461 -27.832,7.004 -56.383,18.097 -74.219,40.523 -0.277,1.395 -0.488,2.817 -0.621,4.258 0.02,0.086 0.043,0.168 0.067,0.254 21.371,-19.707 51.769,-25.988 80.746,-28.274 29.023,-2.289 58.742,-1.464 86.488,-10.277 27.75,-8.812 54.031,-30.176 58.062,-59.039 l -6.14,3.801 c -6.918,15.98 -25,24.437 -42.305,26.246 -7.605,0.793 -15.222,0.582 -22.851,0.047"
         style="fill:#c20b8b;fill-opacity:1;fill-rule:nonzero;stroke:none"
         transform="scale(1.3333333)"
         clip-path="url(#clipPath11)"
         id="path12" />
    </g>
    <g
       id="g14"
       transform="matrix(0.26094511,0,0,0.26094511,-3.3670218,-24.229633)">
      <path
         d="m 543.973,401.109 -226.465,7.164 c -3.078,7.289 -10.172,12.508 -18.594,12.774 -0.336,0.012 -0.672,0.012 -1.004,0.008 v 0.015 c -0.094,0.004 -0.191,0.008 -0.289,0.008 -8.422,0 -15.68,-4.992 -18.988,-12.18 H 52.055 v 9.93 h 222.523 v 4.965 h 24.051 v -0.02 l 23.406,-0.742 -0.156,-4.961 222.406,-7.039 z"
         style="fill:#15161f;fill-opacity:1;fill-rule:nonzero;stroke:none"
         transform="scale(1.3333333)"
         clip-path="url(#clipPath13)"
         id="path14" />
    </g>
    <g
       id="g16"
       transform="matrix(0.26094511,0,0,0.26094511,-3.3670218,-24.229633)">
      <path
         d="m 296.121,320.961 4.445,15.598 4.45,-15.598 15.718,3.941 -11.273,-11.652 11.273,-11.656 -15.718,3.945 -4.45,-15.598 -4.445,15.598 -15.719,-3.945 11.274,11.656 -11.274,11.652 z"
         style="fill:#c20b8b;fill-opacity:1;fill-rule:nonzero;stroke:none"
         transform="scale(1.3333333)"
         clip-path="url(#clipPath15)"
         id="path16" />
    </g>
    <g
       id="g18"
       transform="matrix(0.26094511,0,0,0.26094511,-3.3670218,-24.229633)">
      <path
         d="m 377.336,242.137 2.504,8.781 2.504,-8.781 8.851,2.218 -6.347,-6.562 6.347,-6.563 -8.851,2.223 -2.504,-8.785 -2.504,8.785 -8.852,-2.223 6.348,6.563 -6.348,6.562 z"
         style="fill:#333999;fill-opacity:1;fill-rule:nonzero;stroke:none"
         transform="scale(1.3333333)"
         clip-path="url(#clipPath17)"
         id="path18" />
    </g>
    <g
       id="g20"
       transform="matrix(0.26094511,0,0,0.26094511,-3.3670218,-24.229633)">
      <path
         d="m 214,253.695 2.504,8.782 2.504,-8.782 8.851,2.219 -6.347,-6.562 6.347,-6.563 -8.851,2.223 -2.504,-8.785 -2.504,8.785 -8.852,-2.223 6.348,6.563 -6.348,6.562 z"
         style="fill:#0bb1f0;fill-opacity:1;fill-rule:nonzero;stroke:none"
         transform="scale(1.3333333)"
         clip-path="url(#clipPath19)"
         id="path20" />
    </g>
    <g
       id="g22"
       transform="matrix(0.26094511,0,0,0.26094511,-3.3670218,-24.229633)">
      <path
         d="m 236.047,292.531 -8.188,8.465 11.418,-2.863 3.231,11.332 3.23,-11.332 11.422,2.863 -8.191,-8.465 8.191,-8.465 -11.422,2.864 -3.23,-11.332 -3.231,11.332 -11.418,-2.864 z"
         style="fill:#ed1737;fill-opacity:1;fill-rule:nonzero;stroke:none"
         transform="scale(1.3333333)"
         clip-path="url(#clipPath21)"
         id="path22" />
    </g>
    <g
       id="g24"
       transform="matrix(0.26094511,0,0,0.26094511,-3.3670218,-24.229633)">
      <path
         d="m 365.254,295.387 3.23,11.332 3.231,-11.332 11.418,2.867 -8.188,-8.469 8.188,-8.465 -11.418,2.868 -3.231,-11.333 -3.23,11.333 -11.418,-2.868 8.187,8.465 -8.187,8.469 z"
         style="fill:#6fc955;fill-opacity:1;fill-rule:nonzero;stroke:none"
         transform="scale(1.3333333)"
         clip-path="url(#clipPath23)"
         id="path24" />
    </g>
    <g
       id="g26"
       transform="matrix(0.26094511,0,0,0.26094511,-3.3670218,-24.229633)">
      <path
         d="m 298.043,210.461 2.012,7.734 2.007,-7.734 7.106,1.957 -5.094,-5.781 5.094,-5.778 -7.106,1.953 -2.007,-7.734 -2.012,7.734 -7.105,-1.953 5.097,5.778 -5.097,5.781 z"
         style="fill:#ce631d;fill-opacity:1;fill-rule:nonzero;stroke:none"
         transform="scale(1.3333333)"
         clip-path="url(#clipPath25)"
         id="path26" />
    </g>
    <g
       id="g28"
       transform="matrix(0.26094511,0,0,0.26094511,-3.3670218,-24.229633)">
      <path
         d="m 302.578,245.531 -2.012,-7.738 -2.007,7.738 -7.106,-1.957 5.094,5.778 -5.094,5.781 7.106,-1.957 2.007,7.734 2.012,-7.734 7.106,1.957 -5.094,-5.781 5.094,-5.778 z"
         style="fill:#e1ea16;fill-opacity:1;fill-rule:nonzero;stroke:none"
         transform="scale(1.3333333)"
         clip-path="url(#clipPath27)"
         id="path28" />
    </g>
    <g
       id="g30"
       transform="matrix(0.26094511,0,0,0.26094511,-3.3670218,-24.229633)">
      <path
         d="m 89.605,228.246 c -0.144,0.715 0.047,1.438 0.575,2.164 0.523,0.731 1.461,1.633 2.808,2.715 l 11.305,9.043 3.012,-3.77 c 2.636,-3.3 3.742,-6.125 3.308,-8.472 -0.429,-2.344 -1.937,-4.551 -4.527,-6.621 -2.699,-2.16 -5.262,-3.086 -7.688,-2.785 -2.421,0.308 -4.878,2.015 -7.367,5.128 -0.808,1.016 -1.285,1.879 -1.426,2.598 m 47.957,2.164 c 0.442,1.524 0.571,2.961 0.379,4.317 -0.191,1.355 -0.796,2.668 -1.816,3.945 -2.52,3.152 -5.484,3.945 -8.906,2.379 l -8.422,-3.883 c -2.52,-1.156 -4.547,-1.5 -6.082,-1.039 -1.539,0.461 -3.117,1.707 -4.735,3.73 l -2.562,3.211 9.84,7.875 c 1.426,1.141 2.547,1.856 3.363,2.137 0.817,0.285 1.586,0.207 2.305,-0.23 0.719,-0.438 1.656,-1.305 2.812,-2.594 l 1.125,0.898 c -1.492,1.637 -3.453,3.977 -5.879,7.016 -2.582,3.226 -4.441,5.672 -5.589,7.34 l -1.125,-0.903 c 1.007,-1.41 1.644,-2.515 1.914,-3.312 0.269,-0.801 0.175,-1.567 -0.286,-2.301 -0.457,-0.738 -1.394,-1.676 -2.82,-2.816 L 88.809,238.359 c -1.426,-1.14 -2.547,-1.851 -3.364,-2.136 -0.816,-0.289 -1.586,-0.211 -2.304,0.23 -0.719,0.438 -1.657,1.305 -2.813,2.594 l -1.121,-0.899 c 1.371,-1.488 3.254,-3.73 5.652,-6.734 l 4.532,-5.785 c 0.472,-0.668 1.035,-1.414 1.695,-2.242 3.355,-4.203 6.715,-6.789 10.074,-7.762 3.36,-0.973 6.293,-0.457 8.805,1.555 2.176,1.742 3.465,4.203 3.871,7.39 0.402,3.184 -0.738,6.961 -3.43,11.328 0.676,-0.691 1.262,-1.269 1.754,-1.734 1.891,-1.75 3.75,-2.844 5.578,-3.289 1.828,-0.441 3.934,-0.113 6.309,0.992 l 6.105,2.856 c 1.555,0.75 2.743,1.164 3.571,1.242 0.828,0.078 1.468,-0.164 1.918,-0.727 0.75,-0.937 0.937,-2.48 0.562,-4.625 z"
         style="fill:#333999;fill-opacity:1;fill-rule:nonzero;stroke:none"
         transform="scale(1.3333333)"
         clip-path="url(#clipPath29)"
         id="path30" />
    </g>
    <g
       id="g32"
       transform="matrix(0.26094511,0,0,0.26094511,-3.3670218,-24.229633)">
      <path
         d="m 125.871,188.93 c -1.203,1.246 -2,2.242 -2.387,2.992 -0.386,0.75 -0.406,1.523 -0.062,2.316 0.344,0.797 1.133,1.864 2.371,3.203 l 19.363,20.954 c 1.239,1.339 2.239,2.21 3.004,2.617 0.766,0.402 1.535,0.441 2.313,0.113 0.777,-0.324 1.832,-1.039 3.168,-2.145 l 0.976,1.059 c -1.719,1.395 -4.004,3.414 -6.859,6.055 -3.031,2.808 -5.235,4.949 -6.617,6.426 l -0.981,-1.059 c 1.207,-1.246 2,-2.242 2.387,-2.992 0.383,-0.75 0.406,-1.524 0.062,-2.321 -0.339,-0.793 -1.132,-1.863 -2.371,-3.203 l -19.359,-20.949 c -1.238,-1.344 -2.242,-2.215 -3.008,-2.617 -0.766,-0.406 -1.535,-0.445 -2.312,-0.117 -0.778,0.328 -1.832,1.043 -3.168,2.148 l -0.977,-1.058 c 1.578,-1.266 3.879,-3.301 6.914,-6.106 2.817,-2.609 5.004,-4.734 6.563,-6.375 z"
         style="fill:#333999;fill-opacity:1;fill-rule:nonzero;stroke:none"
         transform="scale(1.3333333)"
         clip-path="url(#clipPath31)"
         id="path32" />
    </g>
    <g
       id="g34"
       transform="matrix(0.26094511,0,0,0.26094511,-3.3670218,-24.229633)">
      <path
         d="m 149.207,169.004 c 1.262,-0.328 2.672,-0.508 4.231,-0.543 1.25,-0.055 2.113,-0.246 2.585,-0.578 0.352,-0.246 0.481,-0.649 0.391,-1.199 -0.094,-0.551 -0.394,-1.321 -0.91,-2.309 l 1.359,-0.949 c 1.231,2.187 3.664,5.875 7.297,11.074 l -1.359,0.949 c -2.215,-2.668 -4.809,-4.429 -7.778,-5.285 -2.968,-0.852 -5.968,-0.219 -8.996,1.902 -2.086,1.457 -3.418,3.215 -4.007,5.266 -0.586,2.055 -0.29,3.926 0.894,5.617 0.856,1.223 1.902,2.074 3.145,2.551 1.242,0.48 2.57,0.707 3.988,0.68 1.418,-0.024 3.34,-0.184 5.773,-0.477 l 2.688,-0.301 c 3.347,-0.406 6.117,-0.617 8.308,-0.625 2.188,-0.007 4.196,0.328 6.024,1.016 1.824,0.687 3.344,1.895 4.555,3.629 2.226,3.187 2.804,6.465 1.726,9.824 -1.078,3.363 -3.348,6.258 -6.809,8.68 -1.886,1.324 -3.57,2.207 -5.042,2.652 -1.477,0.449 -2.997,0.723 -4.567,0.824 -1.25,0.055 -2.113,0.246 -2.582,0.575 -0.355,0.25 -0.488,0.648 -0.394,1.199 0.093,0.551 0.394,1.32 0.91,2.308 l -1.356,0.954 c -1.191,-2.04 -4.136,-6.43 -8.843,-13.161 l 1.355,-0.949 c 2.836,3.469 5.883,5.734 9.141,6.793 3.261,1.063 6.64,0.363 10.14,-2.086 1.969,-1.375 3.278,-3.129 3.93,-5.254 0.652,-2.129 0.207,-4.297 -1.336,-6.5 -0.906,-1.301 -2.086,-2.191 -3.535,-2.672 -1.445,-0.48 -3.074,-0.671 -4.887,-0.578 -1.808,0.094 -4.246,0.332 -7.312,0.723 -4.383,0.601 -7.996,0.672 -10.84,0.199 -2.848,-0.469 -5.192,-2.019 -7.035,-4.66 -2.036,-2.914 -2.547,-5.926 -1.532,-9.043 1.016,-3.113 3.078,-5.762 6.184,-7.938 1.734,-1.21 3.23,-1.98 4.496,-2.308"
         style="fill:#333999;fill-opacity:1;fill-rule:nonzero;stroke:none"
         transform="scale(1.3333333)"
         clip-path="url(#clipPath33)"
         id="path34" />
    </g>
    <g
       id="g36"
       transform="matrix(0.26094511,0,0,0.26094511,-3.3670218,-24.229633)">
      <path
         d="m 185.449,150.289 c -1.496,0.875 -2.531,1.621 -3.101,2.238 -0.575,0.618 -0.805,1.36 -0.688,2.215 0.113,0.86 0.59,2.102 1.418,3.727 l 13,25.402 c 0.832,1.625 1.563,2.734 2.192,3.328 0.628,0.598 1.359,0.844 2.195,0.739 0.836,-0.106 2.047,-0.508 3.629,-1.211 l 0.652,1.281 c -2.027,0.879 -4.773,2.207 -8.234,3.98 -3.676,1.883 -6.375,3.352 -8.106,4.399 l -0.656,-1.282 c 1.496,-0.875 2.527,-1.621 3.102,-2.238 0.574,-0.617 0.804,-1.355 0.687,-2.215 -0.117,-0.859 -0.59,-2.101 -1.422,-3.726 l -12.996,-25.403 c -0.832,-1.625 -1.562,-2.734 -2.191,-3.328 -0.629,-0.597 -1.36,-0.843 -2.196,-0.738 -0.836,0.105 -2.046,0.508 -3.629,1.211 l -0.656,-1.281 c 1.86,-0.793 4.629,-2.129 8.301,-4.016 3.418,-1.75 6.098,-3.207 8.043,-4.363 z"
         style="fill:#333999;fill-opacity:1;fill-rule:nonzero;stroke:none"
         transform="scale(1.3333333)"
         clip-path="url(#clipPath35)"
         id="path36" />
    </g>
    <g
       id="g38"
       transform="matrix(0.26094511,0,0,0.26094511,-3.3670218,-24.229633)">
      <path
         d="m 236.832,131.711 c -1.57,0.605 -2.68,1.23 -3.328,1.871 -0.652,0.641 -0.973,1.449 -0.957,2.426 0.012,0.984 0.301,2.344 0.859,4.078 l 10.992,34.09 -1.578,0.508 -39.66,-29.145 9.578,29.699 c 0.574,1.785 1.149,3.063 1.727,3.836 0.578,0.774 1.363,1.215 2.355,1.321 0.992,0.109 2.418,-0.086 4.278,-0.586 l 0.441,1.371 c -1.691,0.394 -4.043,1.078 -7.059,2.054 -2.738,0.883 -4.839,1.641 -6.304,2.262 l -0.442,-1.371 c 1.571,-0.605 2.68,-1.23 3.332,-1.871 0.649,-0.637 0.969,-1.449 0.957,-2.43 -0.015,-0.98 -0.3,-2.336 -0.863,-4.074 l -8.535,-26.477 c -0.559,-1.738 -1.102,-2.949 -1.629,-3.64 -0.523,-0.688 -1.207,-1.047 -2.051,-1.078 -0.84,-0.032 -2.097,0.175 -3.773,0.613 l -0.442,-1.371 c 1.551,-0.352 3.7,-0.969 6.438,-1.852 2.469,-0.797 4.547,-1.547 6.238,-2.242 l 31.68,23.391 -7.258,-22.496 c -0.574,-1.786 -1.148,-3.063 -1.726,-3.836 -0.579,-0.774 -1.364,-1.211 -2.356,-1.321 -0.992,-0.109 -2.418,0.086 -4.273,0.586 l -0.442,-1.375 c 1.688,-0.39 4.039,-1.078 7.055,-2.05 2.738,-0.887 4.844,-1.641 6.305,-2.266 z"
         style="fill:#333999;fill-opacity:1;fill-rule:nonzero;stroke:none"
         transform="scale(1.3333333)"
         clip-path="url(#clipPath37)"
         id="path38" />
    </g>
    <g
       id="g40"
       transform="matrix(0.26094511,0,0,0.26094511,-3.3670218,-24.229633)">
      <path
         d="m 276.266,125.266 c 1.726,0.593 3.605,1.578 5.632,2.961 0.668,0.414 1.172,0.601 1.508,0.566 0.906,-0.094 1.348,-1.613 1.332,-4.559 l 1.645,-0.172 c 0.094,2.743 0.5,7.532 1.215,14.364 l -1.649,0.176 c -0.574,-1.778 -1.203,-3.329 -1.898,-4.657 -0.696,-1.332 -1.551,-2.472 -2.567,-3.429 -1.765,-1.649 -3.558,-2.864 -5.375,-3.641 -1.82,-0.773 -3.968,-1.031 -6.453,-0.773 -2.863,0.3 -5.254,1.433 -7.172,3.398 -1.918,1.965 -3.281,4.629 -4.086,8 -0.808,3.371 -0.98,7.254 -0.519,11.648 0.762,7.313 2.66,12.547 5.695,15.707 3.031,3.161 7.199,4.465 12.5,3.911 2.051,-0.215 3.867,-0.598 5.453,-1.153 0.84,-0.281 1.391,-0.652 1.657,-1.113 0.265,-0.465 0.359,-1.078 0.277,-1.844 l -0.645,-6.164 c -0.211,-2.008 -0.554,-3.441 -1.027,-4.312 -0.48,-0.868 -1.211,-1.418 -2.203,-1.653 -0.988,-0.234 -2.563,-0.285 -4.723,-0.156 l -0.148,-1.433 c 2.594,-0.129 5.965,-0.411 10.121,-0.844 3.246,-0.34 5.719,-0.672 7.422,-0.996 l 0.152,1.433 c -1.09,0.211 -1.859,0.485 -2.305,0.821 -0.445,0.336 -0.722,0.921 -0.828,1.753 -0.109,0.836 -0.066,2.157 0.125,3.973 l 1.11,10.61 -1.434,0.152 c -0.215,-1.141 -0.633,-1.676 -1.254,-1.61 -0.285,0.028 -0.793,0.254 -1.523,0.665 -0.727,0.417 -1.231,0.687 -1.508,0.812 -2.945,1.371 -6.016,2.223 -9.215,2.559 -7.16,0.75 -12.902,-0.594 -17.215,-4.028 -4.32,-3.437 -6.84,-8.621 -7.562,-15.55 -0.5,-4.778 -0.031,-9.043 1.41,-12.793 1.445,-3.75 3.676,-6.762 6.695,-9.036 3.02,-2.273 6.606,-3.625 10.758,-4.062 2.676,-0.277 4.875,-0.121 6.602,0.469"
         style="fill:#333999;fill-opacity:1;fill-rule:nonzero;stroke:none"
         transform="scale(1.3333333)"
         clip-path="url(#clipPath39)"
         id="path40" />
    </g>
    <g
       id="g42"
       transform="matrix(0.26094511,0,0,0.26094511,-3.3670218,-24.229633)">
      <path
         d="m 341.441,128.164 c 1.137,0.645 2.278,1.496 3.422,2.555 0.934,0.832 1.688,1.289 2.258,1.383 0.426,0.066 0.797,-0.129 1.113,-0.59 0.317,-0.461 0.633,-1.223 0.95,-2.293 l 1.636,0.261 c -0.632,2.43 -1.445,6.774 -2.445,13.04 l -1.637,-0.262 c 0.262,-3.461 -0.379,-6.531 -1.918,-9.211 -1.543,-2.68 -4.136,-4.313 -7.785,-4.895 -2.515,-0.402 -4.695,-0.07 -6.539,0.996 -1.851,1.067 -2.937,2.622 -3.262,4.661 -0.234,1.472 -0.074,2.812 0.489,4.019 0.558,1.211 1.359,2.297 2.394,3.266 1.035,0.968 2.531,2.191 4.481,3.672 l 2.144,1.66 c 2.688,2.031 4.82,3.812 6.403,5.328 1.578,1.519 2.789,3.16 3.625,4.922 0.835,1.765 1.085,3.691 0.753,5.777 -0.613,3.844 -2.476,6.602 -5.585,8.266 -3.11,1.668 -6.75,2.168 -10.922,1.5 -2.274,-0.364 -4.098,-0.899 -5.465,-1.602 -1.371,-0.707 -2.656,-1.57 -3.852,-2.59 -0.941,-0.828 -1.691,-1.289 -2.261,-1.382 -0.426,-0.067 -0.797,0.128 -1.114,0.589 -0.316,0.461 -0.633,1.223 -0.949,2.293 l -1.637,-0.261 c 0.563,-2.293 1.489,-7.5 2.785,-15.614 l 1.637,0.262 c -0.375,4.465 0.242,8.215 1.848,11.246 1.609,3.028 4.519,4.883 8.738,5.559 2.371,0.379 4.527,0.027 6.473,-1.047 1.949,-1.074 3.133,-2.942 3.558,-5.598 0.25,-1.566 0.02,-3.023 -0.687,-4.379 -0.707,-1.355 -1.746,-2.625 -3.11,-3.816 -1.367,-1.191 -3.285,-2.719 -5.757,-4.57 -3.571,-2.618 -6.215,-5.082 -7.934,-7.403 -1.719,-2.32 -2.324,-5.066 -1.82,-8.246 0.562,-3.512 2.289,-6.031 5.183,-7.566 2.895,-1.532 6.211,-1.996 9.957,-1.399 2.086,0.336 3.696,0.825 4.832,1.469"
         style="fill:#333999;fill-opacity:1;fill-rule:nonzero;stroke:none"
         transform="scale(1.3333333)"
         clip-path="url(#clipPath41)"
         id="path42" />
    </g>
    <g
       id="g44"
       transform="matrix(0.26094511,0,0,0.26094511,-3.3670218,-24.229633)">
      <path
         d="m 399.27,154.305 c -0.836,2.355 -1.43,4.234 -1.778,5.64 l -1.558,-0.558 c 0.855,-3.262 1.285,-5.836 1.296,-7.723 0.008,-1.883 -0.511,-3.434 -1.558,-4.648 -1.043,-1.215 -2.789,-2.254 -5.227,-3.125 l -4.343,-1.551 -11.332,31.844 c -0.676,1.898 -0.989,3.347 -0.93,4.332 0.055,0.992 0.476,1.804 1.269,2.445 0.793,0.637 2.188,1.367 4.192,2.184 l -0.481,1.355 c -2.304,-0.973 -5.605,-2.227 -9.902,-3.758 -4.52,-1.613 -7.891,-2.738 -10.109,-3.375 l 0.484,-1.359 c 2.066,0.637 3.609,0.957 4.625,0.961 1.016,0.008 1.859,-0.356 2.527,-1.09 0.668,-0.727 1.34,-2.047 2.016,-3.945 l 11.332,-31.84 -4.34,-1.551 c -2.441,-0.871 -4.453,-1.164 -6.027,-0.887 -1.578,0.278 -2.961,1.153 -4.141,2.617 -1.183,1.465 -2.476,3.735 -3.875,6.805 l -1.558,-0.555 c 0.648,-1.402 1.378,-3.23 2.183,-5.496 0.836,-2.351 1.629,-5.082 2.375,-8.179 3.707,1.472 10.055,3.812 19.055,7.023 8.953,3.191 15.328,5.391 19.133,6.594 -1.383,2.871 -2.489,5.488 -3.328,7.84"
         style="fill:#333999;fill-opacity:1;fill-rule:nonzero;stroke:none"
         transform="scale(1.3333333)"
         clip-path="url(#clipPath43)"
         id="path44" />
    </g>
    <g
       id="g46"
       transform="matrix(0.26094511,0,0,0.26094511,-3.3670218,-24.229633)">
      <path
         d="m 416.543,184.574 1.98,-19.937 -16.183,11.84 z m 6.992,22.071 -0.715,1.253 c -1.593,-1.078 -3.793,-2.414 -6.586,-4.007 -3.586,-2.043 -6.289,-3.504 -8.113,-4.379 l 0.715,-1.25 c 1.59,0.797 2.844,1.234 3.766,1.316 0.918,0.082 1.601,-0.269 2.054,-1.066 0.379,-0.668 0.649,-1.817 0.801,-3.442 l 0.871,-8.957 -15.199,-8.672 -4.801,3.485 c -1.637,1.222 -2.754,2.359 -3.348,3.402 -0.617,1.086 -0.71,2.149 -0.285,3.195 0.426,1.043 1.45,2.141 3.067,3.282 l -0.715,1.25 c -1.18,-0.836 -3.043,-1.981 -5.586,-3.434 -2.547,-1.449 -4.395,-2.422 -5.551,-2.914 l 0.715,-1.254 c 1.289,0.352 2.613,0.262 3.965,-0.269 1.348,-0.528 2.844,-1.403 4.476,-2.629 l 31.649,-23.426 1,0.57 -4.215,41.477 c -0.348,3.23 0.332,5.386 2.035,6.469"
         style="fill:#333999;fill-opacity:1;fill-rule:nonzero;stroke:none"
         transform="scale(1.3333333)"
         clip-path="url(#clipPath45)"
         id="path46" />
    </g>
    <g
       id="g48"
       transform="matrix(0.26094511,0,0,0.26094511,-3.3670218,-24.229633)">
      <path
         d="m 461.23,186.062 c -0.71,-0.167 -1.441,-0.003 -2.187,0.493 -0.746,0.5 -1.68,1.402 -2.809,2.715 l -9.453,10.968 3.653,3.157 c 3.199,2.757 5.98,3.968 8.336,3.621 2.355,-0.344 4.617,-1.77 6.777,-4.282 2.258,-2.621 3.281,-5.148 3.066,-7.586 -0.215,-2.437 -1.828,-4.957 -4.847,-7.562 -0.981,-0.848 -1.828,-1.356 -2.536,-1.524 m -3.941,47.891 c -1.539,0.387 -2.98,0.461 -4.324,0.219 -1.344,-0.242 -2.637,-0.895 -3.871,-1.961 -3.055,-2.637 -3.735,-5.633 -2.043,-8.996 l 4.187,-8.281 c 1.246,-2.477 1.668,-4.493 1.262,-6.047 -0.406,-1.555 -1.586,-3.18 -3.551,-4.875 l -3.109,-2.68 -8.227,9.551 c -1.191,1.383 -1.945,2.476 -2.258,3.285 -0.316,0.805 -0.269,1.578 0.145,2.312 0.414,0.739 1.242,1.708 2.488,2.907 l -0.941,1.093 c -1.578,-1.55 -3.84,-3.597 -6.785,-6.14 -3.125,-2.699 -5.5,-4.652 -7.121,-5.86 l 0.941,-1.093 c 1.371,1.058 2.453,1.734 3.238,2.035 0.789,0.301 1.559,0.234 2.309,-0.199 0.75,-0.426 1.723,-1.336 2.914,-2.719 l 18.621,-21.613 c 1.188,-1.383 1.941,-2.477 2.258,-3.286 0.312,-0.804 0.266,-1.578 -0.145,-2.312 -0.414,-0.738 -1.242,-1.703 -2.488,-2.906 l 0.941,-1.094 c 1.434,1.426 3.602,3.395 6.512,5.906 l 5.606,4.746 c 0.652,0.496 1.375,1.09 2.175,1.782 4.071,3.511 6.528,6.968 7.375,10.363 0.848,3.394 0.219,6.312 -1.878,8.75 -1.821,2.109 -4.325,3.308 -7.52,3.598 -3.195,0.289 -6.926,-0.997 -11.184,-3.848 0.664,0.699 1.219,1.305 1.664,1.816 1.676,1.957 2.704,3.856 3.079,5.703 0.371,1.844 -0.036,3.938 -1.223,6.274 l -3.078,6 c -0.809,1.527 -1.266,2.703 -1.375,3.527 -0.11,0.824 0.109,1.473 0.656,1.945 0.906,0.782 2.438,1.028 4.594,0.731 z"
         style="fill:#333999;fill-opacity:1;fill-rule:nonzero;stroke:none"
         transform="scale(1.3333333)"
         clip-path="url(#clipPath47)"
         id="path48" />
    </g>
    <g
       id="g50"
       transform="matrix(0.26094511,0,0,0.26094511,-3.3670218,-24.229633)">
      <path
         d="m 502.242,225.098 c 0.414,1.242 0.692,2.636 0.836,4.191 0.137,1.246 0.391,2.09 0.75,2.539 0.274,0.34 0.68,0.442 1.223,0.313 0.543,-0.133 1.289,-0.489 2.238,-1.071 l 1.039,1.293 c -2.094,1.379 -5.605,4.063 -10.535,8.047 l -1.039,-1.293 c 2.508,-2.394 4.086,-5.105 4.734,-8.129 0.645,-3.023 -0.191,-5.972 -2.511,-8.851 -1.598,-1.985 -3.442,-3.196 -5.524,-3.641 -2.086,-0.445 -3.933,-0.019 -5.539,1.277 -1.16,0.934 -1.934,2.039 -2.324,3.313 -0.395,1.273 -0.531,2.617 -0.406,4.031 0.121,1.414 0.414,3.324 0.871,5.731 l 0.484,2.664 c 0.637,3.316 1.031,6.066 1.191,8.254 0.161,2.187 -0.042,4.214 -0.597,6.086 -0.559,1.871 -1.66,3.468 -3.305,4.796 -3.023,2.442 -6.254,3.243 -9.676,2.399 -3.425,-0.848 -6.464,-2.914 -9.117,-6.207 -1.445,-1.793 -2.441,-3.41 -2.988,-4.852 -0.547,-1.445 -0.926,-2.945 -1.133,-4.504 -0.141,-1.246 -0.391,-2.093 -0.754,-2.543 -0.269,-0.336 -0.676,-0.437 -1.219,-0.308 -0.543,0.129 -1.289,0.484 -2.238,1.066 l -1.043,-1.289 c 1.953,-1.328 6.121,-4.574 12.512,-9.734 l 1.039,1.293 c -3.266,3.066 -5.313,6.265 -6.145,9.59 -0.836,3.328 0.09,6.656 2.774,9.984 1.508,1.871 3.34,3.059 5.508,3.562 2.164,0.508 4.293,-0.085 6.382,-1.773 1.235,-0.996 2.04,-2.234 2.422,-3.715 0.379,-1.48 0.457,-3.121 0.243,-4.918 -0.219,-1.801 -0.625,-4.219 -1.219,-7.258 -0.906,-4.332 -1.219,-7.937 -0.946,-10.812 0.274,-2.875 1.661,-5.324 4.165,-7.344 2.761,-2.234 5.73,-2.949 8.906,-2.148 3.176,0.801 5.953,2.679 8.336,5.633 1.324,1.644 2.195,3.089 2.605,4.328"
         style="fill:#333999;fill-opacity:1;fill-rule:nonzero;stroke:none"
         transform="scale(1.3333333)"
         clip-path="url(#clipPath49)"
         id="path50" />
    </g>
  </g>
</svg>
